G75*
%MOIN*%
%OFA0B0*%
%FSLAX25Y25*%
%IPPOS*%
%LPD*%
%AMOC8*
5,1,8,0,0,1.08239X$1,22.5*
%
%ADD10C,0.00800*%
%ADD11C,0.01000*%
%ADD12R,0.04000X0.40000*%
D10*
X0038408Y0015389D02*
X0038408Y0039011D01*
X0046282Y0046885D02*
X0062030Y0046885D01*
X0061656Y0052200D02*
X0056656Y0052200D01*
X0054156Y0054700D01*
X0051656Y0052200D01*
X0046656Y0052200D01*
X0044156Y0054700D01*
X0044156Y0059700D01*
X0046656Y0062200D01*
X0051656Y0062200D01*
X0054156Y0059700D01*
X0056656Y0062200D01*
X0061656Y0062200D01*
X0064156Y0059700D01*
X0064156Y0054700D01*
X0061656Y0052200D01*
X0076991Y0046885D02*
X0076991Y0007515D01*
X0084156Y0014700D02*
X0086656Y0012200D01*
X0091656Y0012200D01*
X0094156Y0014700D01*
X0096656Y0012200D01*
X0101656Y0012200D01*
X0104156Y0014700D01*
X0104156Y0019700D01*
X0101656Y0022200D01*
X0096656Y0022200D01*
X0094156Y0019700D01*
X0091656Y0022200D01*
X0086656Y0022200D01*
X0084156Y0019700D01*
X0084156Y0014700D01*
X0062030Y0007515D02*
X0046282Y0007515D01*
X0079156Y0042200D02*
X0079156Y0062200D01*
X0119156Y0062200D01*
X0119156Y0058200D01*
X0119156Y0056200D01*
X0119156Y0058200D02*
X0119156Y0042200D01*
X0079156Y0042200D01*
X0119156Y0029700D02*
X0119156Y0024700D01*
X0121656Y0022200D01*
X0119156Y0019700D01*
X0119156Y0014700D01*
X0121656Y0012200D01*
X0126656Y0012200D01*
X0129156Y0014700D01*
X0129156Y0019700D01*
X0126656Y0022200D01*
X0129156Y0024700D01*
X0129156Y0029700D01*
X0126656Y0032200D01*
X0121656Y0032200D01*
X0119156Y0029700D01*
X0127156Y0037200D02*
X0127156Y0077200D01*
X0131156Y0077200D01*
X0131156Y0037200D01*
X0127156Y0037200D01*
X0131156Y0037200D02*
X0140656Y0037200D01*
X0140771Y0037199D01*
X0140886Y0037202D01*
X0141001Y0037209D01*
X0141116Y0037220D01*
X0141230Y0037235D01*
X0141344Y0037253D01*
X0141457Y0037275D01*
X0141570Y0037301D01*
X0141681Y0037331D01*
X0141791Y0037365D01*
X0141901Y0037402D01*
X0142008Y0037443D01*
X0142115Y0037488D01*
X0142219Y0037536D01*
X0142323Y0037588D01*
X0142424Y0037643D01*
X0142523Y0037702D01*
X0142621Y0037763D01*
X0142716Y0037829D01*
X0142809Y0037897D01*
X0142899Y0037968D01*
X0142987Y0038043D01*
X0143073Y0038120D01*
X0143156Y0038200D01*
X0143236Y0038283D01*
X0143313Y0038369D01*
X0143388Y0038457D01*
X0143459Y0038547D01*
X0143527Y0038640D01*
X0143593Y0038735D01*
X0143654Y0038833D01*
X0143713Y0038932D01*
X0143768Y0039033D01*
X0143820Y0039137D01*
X0143868Y0039241D01*
X0143913Y0039348D01*
X0143954Y0039455D01*
X0143991Y0039565D01*
X0144025Y0039675D01*
X0144055Y0039786D01*
X0144081Y0039899D01*
X0144103Y0040012D01*
X0144121Y0040126D01*
X0144136Y0040240D01*
X0144147Y0040355D01*
X0144154Y0040470D01*
X0144157Y0040585D01*
X0144156Y0040700D01*
X0144156Y0042200D01*
X0146656Y0032200D02*
X0141656Y0032200D01*
X0139156Y0029700D01*
X0139156Y0024700D01*
X0141656Y0022200D01*
X0139156Y0019700D01*
X0139156Y0014700D01*
X0141656Y0012200D01*
X0146656Y0012200D01*
X0149156Y0014700D01*
X0149156Y0019700D01*
X0146656Y0022200D01*
X0149156Y0024700D01*
X0149156Y0029700D01*
X0146656Y0032200D01*
X0144156Y0072200D02*
X0144156Y0073700D01*
X0144157Y0073815D01*
X0144154Y0073930D01*
X0144147Y0074045D01*
X0144136Y0074160D01*
X0144121Y0074274D01*
X0144103Y0074388D01*
X0144081Y0074501D01*
X0144055Y0074614D01*
X0144025Y0074725D01*
X0143991Y0074835D01*
X0143954Y0074945D01*
X0143913Y0075052D01*
X0143868Y0075159D01*
X0143820Y0075263D01*
X0143768Y0075367D01*
X0143713Y0075468D01*
X0143654Y0075567D01*
X0143593Y0075665D01*
X0143527Y0075760D01*
X0143459Y0075853D01*
X0143388Y0075943D01*
X0143313Y0076031D01*
X0143236Y0076117D01*
X0143156Y0076200D01*
X0143073Y0076280D01*
X0142987Y0076357D01*
X0142899Y0076432D01*
X0142809Y0076503D01*
X0142716Y0076571D01*
X0142621Y0076637D01*
X0142523Y0076698D01*
X0142424Y0076757D01*
X0142323Y0076812D01*
X0142219Y0076864D01*
X0142115Y0076912D01*
X0142008Y0076957D01*
X0141901Y0076998D01*
X0141791Y0077035D01*
X0141681Y0077069D01*
X0141570Y0077099D01*
X0141457Y0077125D01*
X0141344Y0077147D01*
X0141230Y0077165D01*
X0141116Y0077180D01*
X0141001Y0077191D01*
X0140886Y0077198D01*
X0140771Y0077201D01*
X0140656Y0077200D01*
X0131156Y0077200D01*
X0131360Y0084600D02*
X0130660Y0085301D01*
X0133462Y0088103D01*
X0133462Y0085301D01*
X0132762Y0084600D01*
X0131360Y0084600D01*
X0130660Y0085301D02*
X0130660Y0088103D01*
X0131360Y0088804D01*
X0132762Y0088804D01*
X0133462Y0088103D01*
X0135264Y0088103D02*
X0135964Y0088804D01*
X0137366Y0088804D01*
X0138066Y0088103D01*
X0135264Y0085301D01*
X0135964Y0084600D01*
X0137366Y0084600D01*
X0138066Y0085301D01*
X0138066Y0088103D01*
X0139868Y0088804D02*
X0139868Y0084600D01*
X0139868Y0086001D02*
X0141969Y0087402D01*
X0139868Y0086001D02*
X0141969Y0084600D01*
X0135264Y0085301D02*
X0135264Y0088103D01*
X0128858Y0084600D02*
X0126056Y0084600D01*
X0127457Y0084600D02*
X0127457Y0088804D01*
X0126056Y0087402D01*
X0096321Y0088402D02*
X0094219Y0087001D01*
X0096321Y0085600D01*
X0094219Y0085600D02*
X0094219Y0089804D01*
X0091017Y0089804D02*
X0091017Y0085600D01*
X0092418Y0085600D02*
X0089615Y0085600D01*
X0089615Y0088402D02*
X0091017Y0089804D01*
X0041361Y0087200D02*
X0041365Y0087514D01*
X0041376Y0087828D01*
X0041396Y0088141D01*
X0041423Y0088454D01*
X0041457Y0088766D01*
X0041499Y0089077D01*
X0041549Y0089387D01*
X0041607Y0089696D01*
X0041672Y0090003D01*
X0041744Y0090309D01*
X0041824Y0090613D01*
X0041912Y0090914D01*
X0042007Y0091214D01*
X0042109Y0091511D01*
X0042218Y0091805D01*
X0042335Y0092096D01*
X0042459Y0092385D01*
X0042589Y0092671D01*
X0042727Y0092953D01*
X0042872Y0093232D01*
X0043023Y0093507D01*
X0043181Y0093778D01*
X0043346Y0094045D01*
X0043517Y0094309D01*
X0043695Y0094567D01*
X0043879Y0094822D01*
X0044069Y0095072D01*
X0044265Y0095317D01*
X0044468Y0095557D01*
X0044676Y0095793D01*
X0044889Y0096023D01*
X0045109Y0096247D01*
X0045333Y0096467D01*
X0045563Y0096680D01*
X0045799Y0096888D01*
X0046039Y0097091D01*
X0046284Y0097287D01*
X0046534Y0097477D01*
X0046789Y0097661D01*
X0047047Y0097839D01*
X0047311Y0098010D01*
X0047578Y0098175D01*
X0047849Y0098333D01*
X0048124Y0098484D01*
X0048403Y0098629D01*
X0048685Y0098767D01*
X0048971Y0098897D01*
X0049260Y0099021D01*
X0049551Y0099138D01*
X0049845Y0099247D01*
X0050142Y0099349D01*
X0050442Y0099444D01*
X0050743Y0099532D01*
X0051047Y0099612D01*
X0051353Y0099684D01*
X0051660Y0099749D01*
X0051969Y0099807D01*
X0052279Y0099857D01*
X0052590Y0099899D01*
X0052902Y0099933D01*
X0053215Y0099960D01*
X0053528Y0099980D01*
X0053842Y0099991D01*
X0054156Y0099995D01*
X0054470Y0099991D01*
X0054784Y0099980D01*
X0055097Y0099960D01*
X0055410Y0099933D01*
X0055722Y0099899D01*
X0056033Y0099857D01*
X0056343Y0099807D01*
X0056652Y0099749D01*
X0056959Y0099684D01*
X0057265Y0099612D01*
X0057569Y0099532D01*
X0057870Y0099444D01*
X0058170Y0099349D01*
X0058467Y0099247D01*
X0058761Y0099138D01*
X0059052Y0099021D01*
X0059341Y0098897D01*
X0059627Y0098767D01*
X0059909Y0098629D01*
X0060188Y0098484D01*
X0060463Y0098333D01*
X0060734Y0098175D01*
X0061001Y0098010D01*
X0061265Y0097839D01*
X0061523Y0097661D01*
X0061778Y0097477D01*
X0062028Y0097287D01*
X0062273Y0097091D01*
X0062513Y0096888D01*
X0062749Y0096680D01*
X0062979Y0096467D01*
X0063203Y0096247D01*
X0063423Y0096023D01*
X0063636Y0095793D01*
X0063844Y0095557D01*
X0064047Y0095317D01*
X0064243Y0095072D01*
X0064433Y0094822D01*
X0064617Y0094567D01*
X0064795Y0094309D01*
X0064966Y0094045D01*
X0065131Y0093778D01*
X0065289Y0093507D01*
X0065440Y0093232D01*
X0065585Y0092953D01*
X0065723Y0092671D01*
X0065853Y0092385D01*
X0065977Y0092096D01*
X0066094Y0091805D01*
X0066203Y0091511D01*
X0066305Y0091214D01*
X0066400Y0090914D01*
X0066488Y0090613D01*
X0066568Y0090309D01*
X0066640Y0090003D01*
X0066705Y0089696D01*
X0066763Y0089387D01*
X0066813Y0089077D01*
X0066855Y0088766D01*
X0066889Y0088454D01*
X0066916Y0088141D01*
X0066936Y0087828D01*
X0066947Y0087514D01*
X0066951Y0087200D01*
X0066947Y0086886D01*
X0066936Y0086572D01*
X0066916Y0086259D01*
X0066889Y0085946D01*
X0066855Y0085634D01*
X0066813Y0085323D01*
X0066763Y0085013D01*
X0066705Y0084704D01*
X0066640Y0084397D01*
X0066568Y0084091D01*
X0066488Y0083787D01*
X0066400Y0083486D01*
X0066305Y0083186D01*
X0066203Y0082889D01*
X0066094Y0082595D01*
X0065977Y0082304D01*
X0065853Y0082015D01*
X0065723Y0081729D01*
X0065585Y0081447D01*
X0065440Y0081168D01*
X0065289Y0080893D01*
X0065131Y0080622D01*
X0064966Y0080355D01*
X0064795Y0080091D01*
X0064617Y0079833D01*
X0064433Y0079578D01*
X0064243Y0079328D01*
X0064047Y0079083D01*
X0063844Y0078843D01*
X0063636Y0078607D01*
X0063423Y0078377D01*
X0063203Y0078153D01*
X0062979Y0077933D01*
X0062749Y0077720D01*
X0062513Y0077512D01*
X0062273Y0077309D01*
X0062028Y0077113D01*
X0061778Y0076923D01*
X0061523Y0076739D01*
X0061265Y0076561D01*
X0061001Y0076390D01*
X0060734Y0076225D01*
X0060463Y0076067D01*
X0060188Y0075916D01*
X0059909Y0075771D01*
X0059627Y0075633D01*
X0059341Y0075503D01*
X0059052Y0075379D01*
X0058761Y0075262D01*
X0058467Y0075153D01*
X0058170Y0075051D01*
X0057870Y0074956D01*
X0057569Y0074868D01*
X0057265Y0074788D01*
X0056959Y0074716D01*
X0056652Y0074651D01*
X0056343Y0074593D01*
X0056033Y0074543D01*
X0055722Y0074501D01*
X0055410Y0074467D01*
X0055097Y0074440D01*
X0054784Y0074420D01*
X0054470Y0074409D01*
X0054156Y0074405D01*
X0053842Y0074409D01*
X0053528Y0074420D01*
X0053215Y0074440D01*
X0052902Y0074467D01*
X0052590Y0074501D01*
X0052279Y0074543D01*
X0051969Y0074593D01*
X0051660Y0074651D01*
X0051353Y0074716D01*
X0051047Y0074788D01*
X0050743Y0074868D01*
X0050442Y0074956D01*
X0050142Y0075051D01*
X0049845Y0075153D01*
X0049551Y0075262D01*
X0049260Y0075379D01*
X0048971Y0075503D01*
X0048685Y0075633D01*
X0048403Y0075771D01*
X0048124Y0075916D01*
X0047849Y0076067D01*
X0047578Y0076225D01*
X0047311Y0076390D01*
X0047047Y0076561D01*
X0046789Y0076739D01*
X0046534Y0076923D01*
X0046284Y0077113D01*
X0046039Y0077309D01*
X0045799Y0077512D01*
X0045563Y0077720D01*
X0045333Y0077933D01*
X0045109Y0078153D01*
X0044889Y0078377D01*
X0044676Y0078607D01*
X0044468Y0078843D01*
X0044265Y0079083D01*
X0044069Y0079328D01*
X0043879Y0079578D01*
X0043695Y0079833D01*
X0043517Y0080091D01*
X0043346Y0080355D01*
X0043181Y0080622D01*
X0043023Y0080893D01*
X0042872Y0081168D01*
X0042727Y0081447D01*
X0042589Y0081729D01*
X0042459Y0082015D01*
X0042335Y0082304D01*
X0042218Y0082595D01*
X0042109Y0082889D01*
X0042007Y0083186D01*
X0041912Y0083486D01*
X0041824Y0083787D01*
X0041744Y0084091D01*
X0041672Y0084397D01*
X0041607Y0084704D01*
X0041549Y0085013D01*
X0041499Y0085323D01*
X0041457Y0085634D01*
X0041423Y0085946D01*
X0041396Y0086259D01*
X0041376Y0086572D01*
X0041365Y0086886D01*
X0041361Y0087200D01*
X0046656Y0092200D02*
X0051656Y0092200D01*
D11*
X0078156Y0087200D02*
X0079156Y0087200D01*
X0079156Y0092200D01*
X0099156Y0092200D01*
X0099156Y0087200D01*
X0100156Y0087200D01*
X0099156Y0087200D02*
X0099156Y0082200D01*
X0079156Y0082200D01*
X0079156Y0087200D01*
X0123156Y0087200D02*
X0124156Y0087200D01*
X0124156Y0092200D01*
X0144156Y0092200D01*
X0144156Y0087200D01*
X0145156Y0087200D01*
X0144156Y0087200D02*
X0144156Y0082200D01*
X0124156Y0082200D01*
X0124156Y0087200D01*
X0111328Y0057200D02*
X0111330Y0057306D01*
X0111336Y0057411D01*
X0111346Y0057517D01*
X0111360Y0057621D01*
X0111377Y0057726D01*
X0111399Y0057829D01*
X0111424Y0057932D01*
X0111454Y0058034D01*
X0111487Y0058134D01*
X0111523Y0058233D01*
X0111564Y0058331D01*
X0111608Y0058427D01*
X0111656Y0058521D01*
X0111707Y0058614D01*
X0111761Y0058705D01*
X0111819Y0058793D01*
X0111881Y0058879D01*
X0111945Y0058963D01*
X0112012Y0059045D01*
X0112083Y0059124D01*
X0112156Y0059200D01*
X0112232Y0059273D01*
X0112311Y0059344D01*
X0112393Y0059411D01*
X0112477Y0059475D01*
X0112563Y0059537D01*
X0112651Y0059595D01*
X0112742Y0059649D01*
X0112835Y0059700D01*
X0112929Y0059748D01*
X0113025Y0059792D01*
X0113123Y0059833D01*
X0113222Y0059869D01*
X0113322Y0059902D01*
X0113424Y0059932D01*
X0113527Y0059957D01*
X0113630Y0059979D01*
X0113735Y0059996D01*
X0113839Y0060010D01*
X0113945Y0060020D01*
X0114050Y0060026D01*
X0114156Y0060028D01*
X0114262Y0060026D01*
X0114367Y0060020D01*
X0114473Y0060010D01*
X0114577Y0059996D01*
X0114682Y0059979D01*
X0114785Y0059957D01*
X0114888Y0059932D01*
X0114990Y0059902D01*
X0115090Y0059869D01*
X0115189Y0059833D01*
X0115287Y0059792D01*
X0115383Y0059748D01*
X0115477Y0059700D01*
X0115570Y0059649D01*
X0115661Y0059595D01*
X0115749Y0059537D01*
X0115835Y0059475D01*
X0115919Y0059411D01*
X0116001Y0059344D01*
X0116080Y0059273D01*
X0116156Y0059200D01*
X0116229Y0059124D01*
X0116300Y0059045D01*
X0116367Y0058963D01*
X0116431Y0058879D01*
X0116493Y0058793D01*
X0116551Y0058705D01*
X0116605Y0058614D01*
X0116656Y0058521D01*
X0116704Y0058427D01*
X0116748Y0058331D01*
X0116789Y0058233D01*
X0116825Y0058134D01*
X0116858Y0058034D01*
X0116888Y0057932D01*
X0116913Y0057829D01*
X0116935Y0057726D01*
X0116952Y0057621D01*
X0116966Y0057517D01*
X0116976Y0057411D01*
X0116982Y0057306D01*
X0116984Y0057200D01*
X0116982Y0057094D01*
X0116976Y0056989D01*
X0116966Y0056883D01*
X0116952Y0056779D01*
X0116935Y0056674D01*
X0116913Y0056571D01*
X0116888Y0056468D01*
X0116858Y0056366D01*
X0116825Y0056266D01*
X0116789Y0056167D01*
X0116748Y0056069D01*
X0116704Y0055973D01*
X0116656Y0055879D01*
X0116605Y0055786D01*
X0116551Y0055695D01*
X0116493Y0055607D01*
X0116431Y0055521D01*
X0116367Y0055437D01*
X0116300Y0055355D01*
X0116229Y0055276D01*
X0116156Y0055200D01*
X0116080Y0055127D01*
X0116001Y0055056D01*
X0115919Y0054989D01*
X0115835Y0054925D01*
X0115749Y0054863D01*
X0115661Y0054805D01*
X0115570Y0054751D01*
X0115477Y0054700D01*
X0115383Y0054652D01*
X0115287Y0054608D01*
X0115189Y0054567D01*
X0115090Y0054531D01*
X0114990Y0054498D01*
X0114888Y0054468D01*
X0114785Y0054443D01*
X0114682Y0054421D01*
X0114577Y0054404D01*
X0114473Y0054390D01*
X0114367Y0054380D01*
X0114262Y0054374D01*
X0114156Y0054372D01*
X0114050Y0054374D01*
X0113945Y0054380D01*
X0113839Y0054390D01*
X0113735Y0054404D01*
X0113630Y0054421D01*
X0113527Y0054443D01*
X0113424Y0054468D01*
X0113322Y0054498D01*
X0113222Y0054531D01*
X0113123Y0054567D01*
X0113025Y0054608D01*
X0112929Y0054652D01*
X0112835Y0054700D01*
X0112742Y0054751D01*
X0112651Y0054805D01*
X0112563Y0054863D01*
X0112477Y0054925D01*
X0112393Y0054989D01*
X0112311Y0055056D01*
X0112232Y0055127D01*
X0112156Y0055200D01*
X0112083Y0055276D01*
X0112012Y0055355D01*
X0111945Y0055437D01*
X0111881Y0055521D01*
X0111819Y0055607D01*
X0111761Y0055695D01*
X0111707Y0055786D01*
X0111656Y0055879D01*
X0111608Y0055973D01*
X0111564Y0056069D01*
X0111523Y0056167D01*
X0111487Y0056266D01*
X0111454Y0056366D01*
X0111424Y0056468D01*
X0111399Y0056571D01*
X0111377Y0056674D01*
X0111360Y0056779D01*
X0111346Y0056883D01*
X0111336Y0056989D01*
X0111330Y0057094D01*
X0111328Y0057200D01*
D12*
X0129156Y0057200D03*
M02*
