G75*
%MOIN*%
%OFA0B0*%
%FSLAX25Y25*%
%IPPOS*%
%LPD*%
%AMOC8*
5,1,8,0,0,1.08239X$1,22.5*
%
%ADD10C,0.00000*%
%ADD11C,0.13055*%
%ADD12C,0.06500*%
%ADD13R,0.06500X0.06500*%
%ADD14OC8,0.06800*%
%ADD15C,0.07400*%
%ADD16C,0.06000*%
%ADD17C,0.08000*%
D10*
X0034156Y0002200D02*
X0157857Y0002200D01*
X0157857Y0102161D01*
X0034156Y0102161D01*
X0037817Y0043932D02*
X0037819Y0044060D01*
X0037825Y0044188D01*
X0037835Y0044315D01*
X0037849Y0044443D01*
X0037866Y0044569D01*
X0037888Y0044695D01*
X0037914Y0044821D01*
X0037943Y0044945D01*
X0037976Y0045069D01*
X0038013Y0045191D01*
X0038054Y0045312D01*
X0038099Y0045432D01*
X0038147Y0045551D01*
X0038199Y0045668D01*
X0038255Y0045783D01*
X0038314Y0045897D01*
X0038376Y0046008D01*
X0038442Y0046118D01*
X0038511Y0046225D01*
X0038584Y0046331D01*
X0038660Y0046434D01*
X0038739Y0046534D01*
X0038821Y0046633D01*
X0038906Y0046728D01*
X0038994Y0046821D01*
X0039085Y0046911D01*
X0039178Y0046998D01*
X0039275Y0047083D01*
X0039373Y0047164D01*
X0039475Y0047242D01*
X0039578Y0047317D01*
X0039684Y0047389D01*
X0039792Y0047458D01*
X0039902Y0047523D01*
X0040015Y0047584D01*
X0040129Y0047643D01*
X0040244Y0047697D01*
X0040362Y0047748D01*
X0040480Y0047796D01*
X0040601Y0047839D01*
X0040722Y0047879D01*
X0040845Y0047915D01*
X0040969Y0047948D01*
X0041094Y0047976D01*
X0041219Y0048001D01*
X0041345Y0048021D01*
X0041472Y0048038D01*
X0041600Y0048051D01*
X0041727Y0048060D01*
X0041855Y0048065D01*
X0041983Y0048066D01*
X0042111Y0048063D01*
X0042239Y0048056D01*
X0042366Y0048045D01*
X0042493Y0048030D01*
X0042620Y0048012D01*
X0042746Y0047989D01*
X0042871Y0047962D01*
X0042995Y0047932D01*
X0043118Y0047898D01*
X0043241Y0047860D01*
X0043362Y0047818D01*
X0043481Y0047772D01*
X0043599Y0047723D01*
X0043716Y0047670D01*
X0043831Y0047614D01*
X0043944Y0047554D01*
X0044055Y0047491D01*
X0044164Y0047424D01*
X0044271Y0047354D01*
X0044376Y0047280D01*
X0044478Y0047204D01*
X0044578Y0047124D01*
X0044676Y0047041D01*
X0044771Y0046955D01*
X0044863Y0046866D01*
X0044952Y0046775D01*
X0045039Y0046681D01*
X0045122Y0046584D01*
X0045203Y0046484D01*
X0045280Y0046383D01*
X0045355Y0046278D01*
X0045426Y0046172D01*
X0045493Y0046063D01*
X0045558Y0045953D01*
X0045618Y0045840D01*
X0045676Y0045726D01*
X0045729Y0045610D01*
X0045779Y0045492D01*
X0045826Y0045373D01*
X0045869Y0045252D01*
X0045908Y0045130D01*
X0045943Y0045007D01*
X0045974Y0044883D01*
X0046002Y0044758D01*
X0046025Y0044632D01*
X0046045Y0044506D01*
X0046061Y0044379D01*
X0046073Y0044252D01*
X0046081Y0044124D01*
X0046085Y0043996D01*
X0046085Y0043868D01*
X0046081Y0043740D01*
X0046073Y0043612D01*
X0046061Y0043485D01*
X0046045Y0043358D01*
X0046025Y0043232D01*
X0046002Y0043106D01*
X0045974Y0042981D01*
X0045943Y0042857D01*
X0045908Y0042734D01*
X0045869Y0042612D01*
X0045826Y0042491D01*
X0045779Y0042372D01*
X0045729Y0042254D01*
X0045676Y0042138D01*
X0045618Y0042024D01*
X0045558Y0041911D01*
X0045493Y0041801D01*
X0045426Y0041692D01*
X0045355Y0041586D01*
X0045280Y0041481D01*
X0045203Y0041380D01*
X0045122Y0041280D01*
X0045039Y0041183D01*
X0044952Y0041089D01*
X0044863Y0040998D01*
X0044771Y0040909D01*
X0044676Y0040823D01*
X0044578Y0040740D01*
X0044478Y0040660D01*
X0044376Y0040584D01*
X0044271Y0040510D01*
X0044164Y0040440D01*
X0044055Y0040373D01*
X0043944Y0040310D01*
X0043831Y0040250D01*
X0043716Y0040194D01*
X0043599Y0040141D01*
X0043481Y0040092D01*
X0043362Y0040046D01*
X0043241Y0040004D01*
X0043118Y0039966D01*
X0042995Y0039932D01*
X0042871Y0039902D01*
X0042746Y0039875D01*
X0042620Y0039852D01*
X0042493Y0039834D01*
X0042366Y0039819D01*
X0042239Y0039808D01*
X0042111Y0039801D01*
X0041983Y0039798D01*
X0041855Y0039799D01*
X0041727Y0039804D01*
X0041600Y0039813D01*
X0041472Y0039826D01*
X0041345Y0039843D01*
X0041219Y0039863D01*
X0041094Y0039888D01*
X0040969Y0039916D01*
X0040845Y0039949D01*
X0040722Y0039985D01*
X0040601Y0040025D01*
X0040480Y0040068D01*
X0040362Y0040116D01*
X0040244Y0040167D01*
X0040129Y0040221D01*
X0040015Y0040280D01*
X0039902Y0040341D01*
X0039792Y0040406D01*
X0039684Y0040475D01*
X0039578Y0040547D01*
X0039475Y0040622D01*
X0039373Y0040700D01*
X0039275Y0040781D01*
X0039178Y0040866D01*
X0039085Y0040953D01*
X0038994Y0041043D01*
X0038906Y0041136D01*
X0038821Y0041231D01*
X0038739Y0041330D01*
X0038660Y0041430D01*
X0038584Y0041533D01*
X0038511Y0041639D01*
X0038442Y0041746D01*
X0038376Y0041856D01*
X0038314Y0041967D01*
X0038255Y0042081D01*
X0038199Y0042196D01*
X0038147Y0042313D01*
X0038099Y0042432D01*
X0038054Y0042552D01*
X0038013Y0042673D01*
X0037976Y0042795D01*
X0037943Y0042919D01*
X0037914Y0043043D01*
X0037888Y0043169D01*
X0037866Y0043295D01*
X0037849Y0043421D01*
X0037835Y0043549D01*
X0037825Y0043676D01*
X0037819Y0043804D01*
X0037817Y0043932D01*
X0037817Y0010468D02*
X0037819Y0010596D01*
X0037825Y0010724D01*
X0037835Y0010851D01*
X0037849Y0010979D01*
X0037866Y0011105D01*
X0037888Y0011231D01*
X0037914Y0011357D01*
X0037943Y0011481D01*
X0037976Y0011605D01*
X0038013Y0011727D01*
X0038054Y0011848D01*
X0038099Y0011968D01*
X0038147Y0012087D01*
X0038199Y0012204D01*
X0038255Y0012319D01*
X0038314Y0012433D01*
X0038376Y0012544D01*
X0038442Y0012654D01*
X0038511Y0012761D01*
X0038584Y0012867D01*
X0038660Y0012970D01*
X0038739Y0013070D01*
X0038821Y0013169D01*
X0038906Y0013264D01*
X0038994Y0013357D01*
X0039085Y0013447D01*
X0039178Y0013534D01*
X0039275Y0013619D01*
X0039373Y0013700D01*
X0039475Y0013778D01*
X0039578Y0013853D01*
X0039684Y0013925D01*
X0039792Y0013994D01*
X0039902Y0014059D01*
X0040015Y0014120D01*
X0040129Y0014179D01*
X0040244Y0014233D01*
X0040362Y0014284D01*
X0040480Y0014332D01*
X0040601Y0014375D01*
X0040722Y0014415D01*
X0040845Y0014451D01*
X0040969Y0014484D01*
X0041094Y0014512D01*
X0041219Y0014537D01*
X0041345Y0014557D01*
X0041472Y0014574D01*
X0041600Y0014587D01*
X0041727Y0014596D01*
X0041855Y0014601D01*
X0041983Y0014602D01*
X0042111Y0014599D01*
X0042239Y0014592D01*
X0042366Y0014581D01*
X0042493Y0014566D01*
X0042620Y0014548D01*
X0042746Y0014525D01*
X0042871Y0014498D01*
X0042995Y0014468D01*
X0043118Y0014434D01*
X0043241Y0014396D01*
X0043362Y0014354D01*
X0043481Y0014308D01*
X0043599Y0014259D01*
X0043716Y0014206D01*
X0043831Y0014150D01*
X0043944Y0014090D01*
X0044055Y0014027D01*
X0044164Y0013960D01*
X0044271Y0013890D01*
X0044376Y0013816D01*
X0044478Y0013740D01*
X0044578Y0013660D01*
X0044676Y0013577D01*
X0044771Y0013491D01*
X0044863Y0013402D01*
X0044952Y0013311D01*
X0045039Y0013217D01*
X0045122Y0013120D01*
X0045203Y0013020D01*
X0045280Y0012919D01*
X0045355Y0012814D01*
X0045426Y0012708D01*
X0045493Y0012599D01*
X0045558Y0012489D01*
X0045618Y0012376D01*
X0045676Y0012262D01*
X0045729Y0012146D01*
X0045779Y0012028D01*
X0045826Y0011909D01*
X0045869Y0011788D01*
X0045908Y0011666D01*
X0045943Y0011543D01*
X0045974Y0011419D01*
X0046002Y0011294D01*
X0046025Y0011168D01*
X0046045Y0011042D01*
X0046061Y0010915D01*
X0046073Y0010788D01*
X0046081Y0010660D01*
X0046085Y0010532D01*
X0046085Y0010404D01*
X0046081Y0010276D01*
X0046073Y0010148D01*
X0046061Y0010021D01*
X0046045Y0009894D01*
X0046025Y0009768D01*
X0046002Y0009642D01*
X0045974Y0009517D01*
X0045943Y0009393D01*
X0045908Y0009270D01*
X0045869Y0009148D01*
X0045826Y0009027D01*
X0045779Y0008908D01*
X0045729Y0008790D01*
X0045676Y0008674D01*
X0045618Y0008560D01*
X0045558Y0008447D01*
X0045493Y0008337D01*
X0045426Y0008228D01*
X0045355Y0008122D01*
X0045280Y0008017D01*
X0045203Y0007916D01*
X0045122Y0007816D01*
X0045039Y0007719D01*
X0044952Y0007625D01*
X0044863Y0007534D01*
X0044771Y0007445D01*
X0044676Y0007359D01*
X0044578Y0007276D01*
X0044478Y0007196D01*
X0044376Y0007120D01*
X0044271Y0007046D01*
X0044164Y0006976D01*
X0044055Y0006909D01*
X0043944Y0006846D01*
X0043831Y0006786D01*
X0043716Y0006730D01*
X0043599Y0006677D01*
X0043481Y0006628D01*
X0043362Y0006582D01*
X0043241Y0006540D01*
X0043118Y0006502D01*
X0042995Y0006468D01*
X0042871Y0006438D01*
X0042746Y0006411D01*
X0042620Y0006388D01*
X0042493Y0006370D01*
X0042366Y0006355D01*
X0042239Y0006344D01*
X0042111Y0006337D01*
X0041983Y0006334D01*
X0041855Y0006335D01*
X0041727Y0006340D01*
X0041600Y0006349D01*
X0041472Y0006362D01*
X0041345Y0006379D01*
X0041219Y0006399D01*
X0041094Y0006424D01*
X0040969Y0006452D01*
X0040845Y0006485D01*
X0040722Y0006521D01*
X0040601Y0006561D01*
X0040480Y0006604D01*
X0040362Y0006652D01*
X0040244Y0006703D01*
X0040129Y0006757D01*
X0040015Y0006816D01*
X0039902Y0006877D01*
X0039792Y0006942D01*
X0039684Y0007011D01*
X0039578Y0007083D01*
X0039475Y0007158D01*
X0039373Y0007236D01*
X0039275Y0007317D01*
X0039178Y0007402D01*
X0039085Y0007489D01*
X0038994Y0007579D01*
X0038906Y0007672D01*
X0038821Y0007767D01*
X0038739Y0007866D01*
X0038660Y0007966D01*
X0038584Y0008069D01*
X0038511Y0008175D01*
X0038442Y0008282D01*
X0038376Y0008392D01*
X0038314Y0008503D01*
X0038255Y0008617D01*
X0038199Y0008732D01*
X0038147Y0008849D01*
X0038099Y0008968D01*
X0038054Y0009088D01*
X0038013Y0009209D01*
X0037976Y0009331D01*
X0037943Y0009455D01*
X0037914Y0009579D01*
X0037888Y0009705D01*
X0037866Y0009831D01*
X0037849Y0009957D01*
X0037835Y0010085D01*
X0037825Y0010212D01*
X0037819Y0010340D01*
X0037817Y0010468D01*
D11*
X0054156Y0027200D03*
X0068723Y0012633D03*
X0068723Y0041767D03*
D12*
X0049156Y0087200D03*
D13*
X0059156Y0087200D03*
D14*
X0084156Y0067200D03*
X0094156Y0067200D03*
X0104156Y0067200D03*
X0114156Y0067200D03*
X0114156Y0037200D03*
X0104156Y0037200D03*
X0094156Y0037200D03*
X0084156Y0037200D03*
D15*
X0089156Y0017200D03*
X0099156Y0017200D03*
X0124156Y0017200D03*
X0124156Y0027200D03*
X0144156Y0027200D03*
X0144156Y0017200D03*
X0059156Y0057200D03*
X0049156Y0057200D03*
D16*
X0136156Y0057200D02*
X0142156Y0057200D01*
X0142156Y0047200D02*
X0136156Y0047200D01*
X0136156Y0067200D02*
X0142156Y0067200D01*
D17*
X0149156Y0087200D03*
X0119156Y0087200D03*
X0104156Y0087200D03*
X0074156Y0087200D03*
M02*
