G75*
%MOIN*%
%OFA0B0*%
%FSLAX25Y25*%
%IPPOS*%
%LPD*%
%AMOC8*
5,1,8,0,0,1.08239X$1,22.5*
%
%ADD10C,0.13855*%
%ADD11C,0.09068*%
%ADD12C,0.07300*%
%ADD13R,0.07300X0.07300*%
%ADD14OC8,0.07600*%
%ADD15C,0.08200*%
%ADD16C,0.06800*%
%ADD17C,0.00500*%
D10*
X0054156Y0027200D03*
X0068723Y0012633D03*
X0068723Y0041767D03*
D11*
X0041951Y0010468D03*
X0041951Y0043932D03*
D12*
X0049156Y0087200D03*
D13*
X0059156Y0087200D03*
D14*
X0084156Y0067200D03*
X0094156Y0067200D03*
X0104156Y0067200D03*
X0114156Y0067200D03*
X0114156Y0037200D03*
X0104156Y0037200D03*
X0094156Y0037200D03*
X0084156Y0037200D03*
D15*
X0089156Y0017200D03*
X0099156Y0017200D03*
X0124156Y0017200D03*
X0124156Y0027200D03*
X0144156Y0027200D03*
X0144156Y0017200D03*
X0059156Y0057200D03*
X0049156Y0057200D03*
D16*
X0136156Y0057200D02*
X0142156Y0057200D01*
X0142156Y0047200D02*
X0136156Y0047200D01*
X0136156Y0067200D02*
X0142156Y0067200D01*
D17*
X0148551Y0083528D02*
X0149196Y0083480D01*
X0149916Y0083543D01*
X0150611Y0083745D01*
X0151253Y0084079D01*
X0151817Y0084532D01*
X0152282Y0085086D01*
X0152630Y0085721D01*
X0152847Y0086411D01*
X0152926Y0087130D01*
X0152878Y0087790D01*
X0152716Y0088431D01*
X0152445Y0089035D01*
X0152073Y0089582D01*
X0151612Y0090057D01*
X0151076Y0090444D01*
X0150481Y0090733D01*
X0149844Y0090913D01*
X0149186Y0090980D01*
X0148528Y0090915D01*
X0147891Y0090736D01*
X0147294Y0090449D01*
X0146757Y0090063D01*
X0146295Y0089590D01*
X0145922Y0089044D01*
X0145649Y0088441D01*
X0145486Y0087800D01*
X0145436Y0087140D01*
X0145501Y0086497D01*
X0145677Y0085874D01*
X0145958Y0085292D01*
X0146336Y0084767D01*
X0146799Y0084316D01*
X0147334Y0083952D01*
X0147924Y0083687D01*
X0148551Y0083528D01*
X0147329Y0083956D02*
X0151016Y0083956D01*
X0151720Y0084454D02*
X0146657Y0084454D01*
X0146202Y0084953D02*
X0152170Y0084953D01*
X0152482Y0085451D02*
X0145881Y0085451D01*
X0145656Y0085950D02*
X0152702Y0085950D01*
X0152851Y0086448D02*
X0145515Y0086448D01*
X0145456Y0086947D02*
X0152906Y0086947D01*
X0152903Y0087445D02*
X0145459Y0087445D01*
X0145523Y0087944D02*
X0152839Y0087944D01*
X0152711Y0088442D02*
X0145650Y0088442D01*
X0145875Y0088941D02*
X0152487Y0088941D01*
X0152170Y0089439D02*
X0146192Y0089439D01*
X0146634Y0089938D02*
X0151728Y0089938D01*
X0151087Y0090437D02*
X0147276Y0090437D01*
X0148730Y0090935D02*
X0149629Y0090935D01*
X0122848Y0087760D02*
X0122896Y0087100D01*
X0122817Y0086381D01*
X0122600Y0085691D01*
X0122252Y0085056D01*
X0121787Y0084502D01*
X0121223Y0084049D01*
X0120581Y0083715D01*
X0119886Y0083513D01*
X0119166Y0083450D01*
X0118521Y0083498D01*
X0117894Y0083657D01*
X0117304Y0083922D01*
X0116770Y0084286D01*
X0116306Y0084737D01*
X0115928Y0085262D01*
X0115647Y0085844D01*
X0115471Y0086467D01*
X0115406Y0087110D01*
X0115456Y0087770D01*
X0115620Y0088411D01*
X0115892Y0089014D01*
X0116265Y0089560D01*
X0116727Y0090034D01*
X0117264Y0090419D01*
X0117861Y0090706D01*
X0118498Y0090885D01*
X0119156Y0090950D01*
X0119814Y0090883D01*
X0120451Y0090703D01*
X0121046Y0090414D01*
X0121583Y0090027D01*
X0122044Y0089552D01*
X0122415Y0089005D01*
X0122686Y0088401D01*
X0122848Y0087760D01*
X0122802Y0087944D02*
X0115500Y0087944D01*
X0115432Y0087445D02*
X0122871Y0087445D01*
X0122879Y0086947D02*
X0115423Y0086947D01*
X0115476Y0086448D02*
X0122825Y0086448D01*
X0122682Y0085950D02*
X0115617Y0085950D01*
X0115837Y0085451D02*
X0122469Y0085451D01*
X0122165Y0084953D02*
X0116151Y0084953D01*
X0116597Y0084454D02*
X0121727Y0084454D01*
X0121043Y0083956D02*
X0117255Y0083956D01*
X0119067Y0083457D02*
X0119250Y0083457D01*
X0122668Y0088442D02*
X0115634Y0088442D01*
X0115859Y0088941D02*
X0122444Y0088941D01*
X0122120Y0089439D02*
X0116182Y0089439D01*
X0116634Y0089938D02*
X0121669Y0089938D01*
X0121000Y0090437D02*
X0117300Y0090437D01*
X0119001Y0090935D02*
X0119306Y0090935D01*
X0107841Y0087933D02*
X0107906Y0087290D01*
X0107856Y0086630D01*
X0107692Y0085989D01*
X0107420Y0085386D01*
X0107047Y0084840D01*
X0106585Y0084366D01*
X0106047Y0083981D01*
X0105451Y0083694D01*
X0104814Y0083515D01*
X0104156Y0083450D01*
X0103498Y0083517D01*
X0102861Y0083697D01*
X0102266Y0083986D01*
X0101729Y0084373D01*
X0101268Y0084848D01*
X0100897Y0085395D01*
X0100626Y0085999D01*
X0100464Y0086640D01*
X0100416Y0087300D01*
X0100494Y0088019D01*
X0100712Y0088709D01*
X0101060Y0089344D01*
X0101525Y0089898D01*
X0102089Y0090351D01*
X0102731Y0090685D01*
X0103425Y0090887D01*
X0104146Y0090950D01*
X0104791Y0090902D01*
X0105418Y0090743D01*
X0106008Y0090478D01*
X0106542Y0090114D01*
X0107006Y0089663D01*
X0107384Y0089138D01*
X0107665Y0088556D01*
X0107841Y0087933D01*
X0107837Y0087944D02*
X0100486Y0087944D01*
X0100432Y0087445D02*
X0107890Y0087445D01*
X0107880Y0086947D02*
X0100441Y0086947D01*
X0100512Y0086448D02*
X0107809Y0086448D01*
X0107675Y0085950D02*
X0100648Y0085950D01*
X0100871Y0085451D02*
X0107449Y0085451D01*
X0107124Y0084953D02*
X0101197Y0084953D01*
X0101650Y0084454D02*
X0106671Y0084454D01*
X0105996Y0083956D02*
X0102327Y0083956D01*
X0104080Y0083457D02*
X0104234Y0083457D01*
X0107697Y0088442D02*
X0100628Y0088442D01*
X0100839Y0088941D02*
X0107479Y0088941D01*
X0107167Y0089439D02*
X0101140Y0089439D01*
X0101575Y0089938D02*
X0106723Y0089938D01*
X0106068Y0090437D02*
X0102254Y0090437D01*
X0103974Y0090935D02*
X0104348Y0090935D01*
X0077811Y0087903D02*
X0077876Y0087260D01*
X0077826Y0086600D01*
X0077662Y0085959D01*
X0077390Y0085356D01*
X0077017Y0084810D01*
X0076555Y0084337D01*
X0076017Y0083951D01*
X0075421Y0083664D01*
X0074784Y0083485D01*
X0074126Y0083420D01*
X0073468Y0083487D01*
X0072831Y0083667D01*
X0072236Y0083956D01*
X0071699Y0084343D01*
X0071238Y0084818D01*
X0070867Y0085365D01*
X0070596Y0085969D01*
X0070434Y0086610D01*
X0070386Y0087270D01*
X0070464Y0087989D01*
X0070682Y0088679D01*
X0071030Y0089314D01*
X0071495Y0089868D01*
X0072059Y0090321D01*
X0072701Y0090655D01*
X0073395Y0090857D01*
X0074116Y0090920D01*
X0074761Y0090872D01*
X0075388Y0090713D01*
X0075978Y0090448D01*
X0076512Y0090084D01*
X0076976Y0089633D01*
X0077354Y0089108D01*
X0077635Y0088526D01*
X0077811Y0087903D01*
X0077799Y0087944D02*
X0070459Y0087944D01*
X0070405Y0087445D02*
X0077857Y0087445D01*
X0077852Y0086947D02*
X0070409Y0086947D01*
X0070475Y0086448D02*
X0077787Y0086448D01*
X0077658Y0085950D02*
X0070604Y0085950D01*
X0070828Y0085451D02*
X0077433Y0085451D01*
X0077115Y0084953D02*
X0071147Y0084953D01*
X0071591Y0084454D02*
X0076670Y0084454D01*
X0076025Y0083956D02*
X0072236Y0083956D01*
X0073757Y0083457D02*
X0074505Y0083457D01*
X0077658Y0088442D02*
X0070607Y0088442D01*
X0070825Y0088941D02*
X0077434Y0088941D01*
X0077115Y0089439D02*
X0071135Y0089439D01*
X0071582Y0089938D02*
X0076662Y0089938D01*
X0075994Y0090437D02*
X0072281Y0090437D01*
M02*
