%
M48
M72
T01C0.02756
T02C0.03200
T03C0.04000
T04C0.08268
T05C0.09055
%
T01
X49156Y87200
X59156Y87200
T02
X84156Y67200
X94156Y67200
X104156Y67200
X114156Y67200
X114156Y37200
X104156Y37200
X94156Y37200
X84156Y37200
T03
X89156Y17200
X99156Y17200
X124156Y17200
X124156Y27200
X144156Y27200
X144156Y17200
X139156Y47200
X139156Y57200
X139156Y67200
X149156Y87200
X119156Y87200
X104156Y87200
X74156Y87200
X59156Y57200
X49156Y57200
T04
X41951Y10468
X41951Y43932
T05
X54156Y27200
X68723Y12633
X68723Y41767
M30
