G75*
%MOIN*%
%OFA0B0*%
%FSLAX25Y25*%
%IPPOS*%
%LPD*%
%AMOC8*
5,1,8,0,0,1.08239X$1,22.5*
%
%ADD10C,0.13055*%
%ADD11C,0.06500*%
%ADD12R,0.06500X0.06500*%
%ADD13OC8,0.06800*%
%ADD14C,0.07400*%
%ADD15C,0.06000*%
%ADD16C,0.08000*%
%ADD17C,0.02400*%
D10*
X0054156Y0027200D03*
X0068723Y0012633D03*
X0068723Y0041767D03*
D11*
X0049156Y0087200D03*
D12*
X0059156Y0087200D03*
D13*
X0084156Y0067200D03*
X0094156Y0067200D03*
X0104156Y0067200D03*
X0114156Y0067200D03*
X0114156Y0037200D03*
X0104156Y0037200D03*
X0094156Y0037200D03*
X0084156Y0037200D03*
D14*
X0089156Y0017200D03*
X0099156Y0017200D03*
X0124156Y0017200D03*
X0124156Y0027200D03*
X0144156Y0027200D03*
X0144156Y0017200D03*
X0059156Y0057200D03*
X0049156Y0057200D03*
D15*
X0136156Y0057200D02*
X0142156Y0057200D01*
X0142156Y0047200D02*
X0136156Y0047200D01*
X0136156Y0067200D02*
X0142156Y0067200D01*
D16*
X0149156Y0087200D03*
X0119156Y0087200D03*
X0104156Y0087200D03*
X0074156Y0087200D03*
D17*
X0034156Y0038527D02*
X0034156Y0015873D01*
X0036664Y0018381D01*
X0040095Y0019802D01*
X0043808Y0019802D01*
X0047238Y0018381D01*
X0049864Y0015755D01*
X0051285Y0012324D01*
X0051285Y0008611D01*
X0050783Y0007400D01*
X0061737Y0007400D01*
X0061451Y0007774D01*
X0060879Y0008765D01*
X0060441Y0009822D01*
X0060145Y0010927D01*
X0060060Y0011569D01*
X0067659Y0011569D01*
X0067659Y0013697D01*
X0067659Y0021296D01*
X0067017Y0021211D01*
X0065911Y0020915D01*
X0064854Y0020477D01*
X0063864Y0019905D01*
X0062956Y0019209D01*
X0062147Y0018400D01*
X0061451Y0017492D01*
X0060879Y0016501D01*
X0060441Y0015444D01*
X0060145Y0014339D01*
X0060060Y0013697D01*
X0067659Y0013697D01*
X0069787Y0013697D01*
X0077386Y0013697D01*
X0077301Y0014339D01*
X0077005Y0015444D01*
X0076567Y0016501D01*
X0075995Y0017492D01*
X0075299Y0018400D01*
X0074490Y0019209D01*
X0073582Y0019905D01*
X0072591Y0020477D01*
X0071534Y0020915D01*
X0070429Y0021211D01*
X0069787Y0021296D01*
X0069787Y0013697D01*
X0069787Y0011569D01*
X0077386Y0011569D01*
X0077301Y0010927D01*
X0077005Y0009822D01*
X0076567Y0008765D01*
X0075995Y0007774D01*
X0075708Y0007400D01*
X0152657Y0007400D01*
X0152657Y0082216D01*
X0152555Y0082113D01*
X0150349Y0081200D01*
X0147962Y0081200D01*
X0147764Y0081282D01*
X0140969Y0074487D01*
X0139792Y0074000D01*
X0125481Y0074000D01*
X0119556Y0068075D01*
X0119556Y0066325D01*
X0134115Y0051767D01*
X0135161Y0052200D01*
X0143150Y0052200D01*
X0144988Y0051439D01*
X0145956Y0050471D01*
X0145956Y0050875D01*
X0144197Y0052633D01*
X0143150Y0052200D01*
X0135161Y0052200D01*
X0133324Y0052961D01*
X0131917Y0054368D01*
X0131156Y0056205D01*
X0131156Y0058195D01*
X0131917Y0060032D01*
X0133324Y0061439D01*
X0134974Y0062122D01*
X0134938Y0062128D01*
X0134160Y0062381D01*
X0133430Y0062753D01*
X0132768Y0063234D01*
X0132190Y0063812D01*
X0131708Y0064475D01*
X0131337Y0065204D01*
X0131084Y0065982D01*
X0130956Y0066791D01*
X0130956Y0067200D01*
X0139156Y0067200D01*
X0147356Y0067200D01*
X0147356Y0067609D01*
X0147228Y0068418D01*
X0146975Y0069196D01*
X0146603Y0069925D01*
X0146122Y0070588D01*
X0145543Y0071166D01*
X0144881Y0071647D01*
X0144152Y0072019D01*
X0143374Y0072272D01*
X0142565Y0072400D01*
X0139156Y0072400D01*
X0139156Y0067200D01*
X0139156Y0067200D01*
X0147356Y0067200D01*
X0147356Y0066791D01*
X0147228Y0065982D01*
X0146975Y0065204D01*
X0146603Y0064475D01*
X0146122Y0063812D01*
X0145543Y0063234D01*
X0144881Y0062753D01*
X0144152Y0062381D01*
X0143374Y0062128D01*
X0143338Y0062122D01*
X0144988Y0061439D01*
X0146395Y0060032D01*
X0146780Y0059101D01*
X0146869Y0059013D01*
X0151869Y0054013D01*
X0152356Y0052837D01*
X0152356Y0031563D01*
X0151869Y0030387D01*
X0150969Y0029487D01*
X0149844Y0028363D01*
X0149856Y0028334D01*
X0149856Y0026066D01*
X0148988Y0023971D01*
X0147385Y0022368D01*
X0146980Y0022200D01*
X0147385Y0022032D01*
X0148988Y0020429D01*
X0149856Y0018334D01*
X0149856Y0016066D01*
X0148988Y0013971D01*
X0147385Y0012368D01*
X0145290Y0011500D01*
X0143022Y0011500D01*
X0140927Y0012368D01*
X0139324Y0013971D01*
X0139312Y0014000D01*
X0129000Y0014000D01*
X0128988Y0013971D01*
X0127385Y0012368D01*
X0125290Y0011500D01*
X0123022Y0011500D01*
X0120927Y0012368D01*
X0119324Y0013971D01*
X0118456Y0016066D01*
X0118456Y0018334D01*
X0118468Y0018363D01*
X0112830Y0024000D01*
X0110481Y0024000D01*
X0104844Y0018363D01*
X0104856Y0018334D01*
X0104856Y0016066D01*
X0103988Y0013971D01*
X0102385Y0012368D01*
X0100290Y0011500D01*
X0098022Y0011500D01*
X0095927Y0012368D01*
X0094324Y0013971D01*
X0094238Y0014178D01*
X0094202Y0014108D01*
X0093656Y0013356D01*
X0092999Y0012700D01*
X0092248Y0012154D01*
X0091421Y0011732D01*
X0090537Y0011445D01*
X0089620Y0011300D01*
X0089156Y0011300D01*
X0089156Y0017200D01*
X0089156Y0017200D01*
X0089156Y0023100D01*
X0089620Y0023100D01*
X0090537Y0022955D01*
X0091421Y0022668D01*
X0092248Y0022246D01*
X0092999Y0021700D01*
X0093656Y0021044D01*
X0094202Y0020292D01*
X0094238Y0020222D01*
X0094324Y0020429D01*
X0095927Y0022032D01*
X0098022Y0022900D01*
X0100290Y0022900D01*
X0100318Y0022888D01*
X0106443Y0029013D01*
X0107343Y0029913D01*
X0108519Y0030400D01*
X0110956Y0030400D01*
X0110956Y0032763D01*
X0109156Y0034563D01*
X0106393Y0031800D01*
X0101919Y0031800D01*
X0099156Y0034563D01*
X0096393Y0031800D01*
X0091919Y0031800D01*
X0089156Y0034563D01*
X0086393Y0031800D01*
X0081919Y0031800D01*
X0078756Y0034963D01*
X0078756Y0039437D01*
X0081919Y0042600D01*
X0086393Y0042600D01*
X0089156Y0039837D01*
X0091919Y0042600D01*
X0096393Y0042600D01*
X0099156Y0039837D01*
X0101919Y0042600D01*
X0106393Y0042600D01*
X0109156Y0039837D01*
X0111919Y0042600D01*
X0116393Y0042600D01*
X0119556Y0039437D01*
X0119556Y0034963D01*
X0117356Y0032763D01*
X0117356Y0028525D01*
X0118456Y0027425D01*
X0118456Y0028334D01*
X0119324Y0030429D01*
X0120927Y0032032D01*
X0123022Y0032900D01*
X0125290Y0032900D01*
X0127385Y0032032D01*
X0128988Y0030429D01*
X0129000Y0030400D01*
X0139312Y0030400D01*
X0139324Y0030429D01*
X0140927Y0032032D01*
X0143022Y0032900D01*
X0145290Y0032900D01*
X0145318Y0032888D01*
X0145956Y0033525D01*
X0145956Y0043929D01*
X0144988Y0042961D01*
X0143150Y0042200D01*
X0135161Y0042200D01*
X0133324Y0042961D01*
X0131917Y0044368D01*
X0131531Y0045299D01*
X0131443Y0045387D01*
X0115030Y0061800D01*
X0111919Y0061800D01*
X0109156Y0064563D01*
X0106393Y0061800D01*
X0101919Y0061800D01*
X0099156Y0064563D01*
X0096393Y0061800D01*
X0093281Y0061800D01*
X0085969Y0054487D01*
X0084792Y0054000D01*
X0064000Y0054000D01*
X0063988Y0053971D01*
X0062385Y0052368D01*
X0060290Y0051500D01*
X0058022Y0051500D01*
X0055927Y0052368D01*
X0054324Y0053971D01*
X0054156Y0054376D01*
X0053988Y0053971D01*
X0052385Y0052368D01*
X0052356Y0052356D01*
X0052356Y0035685D01*
X0052460Y0035728D01*
X0055852Y0035728D01*
X0058986Y0034429D01*
X0061385Y0032030D01*
X0062683Y0028896D01*
X0062683Y0025504D01*
X0061385Y0022370D01*
X0058986Y0019971D01*
X0055852Y0018672D01*
X0052460Y0018672D01*
X0049325Y0019971D01*
X0046927Y0022370D01*
X0045628Y0025504D01*
X0045628Y0028896D01*
X0046345Y0030625D01*
X0045956Y0031563D01*
X0045956Y0035488D01*
X0043808Y0034598D01*
X0040095Y0034598D01*
X0036664Y0036019D01*
X0034156Y0038527D01*
X0034156Y0038178D02*
X0034506Y0038178D01*
X0034156Y0035779D02*
X0037244Y0035779D01*
X0034156Y0033381D02*
X0045956Y0033381D01*
X0046197Y0030982D02*
X0034156Y0030982D01*
X0034156Y0028584D02*
X0045628Y0028584D01*
X0045628Y0026185D02*
X0034156Y0026185D01*
X0034156Y0023787D02*
X0046340Y0023787D01*
X0047908Y0021388D02*
X0034156Y0021388D01*
X0034156Y0018990D02*
X0038134Y0018990D01*
X0034874Y0016591D02*
X0034156Y0016591D01*
X0045768Y0018990D02*
X0051694Y0018990D01*
X0049028Y0016591D02*
X0060930Y0016591D01*
X0060125Y0014193D02*
X0050511Y0014193D01*
X0051285Y0011794D02*
X0067659Y0011794D01*
X0069787Y0011794D02*
X0086770Y0011794D01*
X0086891Y0011732D02*
X0087774Y0011445D01*
X0088692Y0011300D01*
X0089156Y0011300D01*
X0089156Y0017200D01*
X0089156Y0017200D01*
X0089156Y0023100D01*
X0088692Y0023100D01*
X0087774Y0022955D01*
X0086891Y0022668D01*
X0086064Y0022246D01*
X0085312Y0021700D01*
X0084656Y0021044D01*
X0084110Y0020292D01*
X0083688Y0019465D01*
X0083401Y0018582D01*
X0083256Y0017664D01*
X0083256Y0017200D01*
X0089156Y0017200D01*
X0083256Y0017200D01*
X0083256Y0016736D01*
X0083401Y0015818D01*
X0083688Y0014935D01*
X0084110Y0014108D01*
X0084656Y0013356D01*
X0085312Y0012700D01*
X0086064Y0012154D01*
X0086891Y0011732D01*
X0089156Y0011794D02*
X0089156Y0011794D01*
X0091542Y0011794D02*
X0097312Y0011794D01*
X0101000Y0011794D02*
X0122312Y0011794D01*
X0119232Y0014193D02*
X0104080Y0014193D01*
X0104856Y0016591D02*
X0118456Y0016591D01*
X0117841Y0018990D02*
X0105471Y0018990D01*
X0107869Y0021388D02*
X0115442Y0021388D01*
X0113044Y0023787D02*
X0110268Y0023787D01*
X0109156Y0027200D02*
X0114156Y0027200D01*
X0124156Y0017200D01*
X0144156Y0017200D01*
X0149584Y0018990D02*
X0152657Y0018990D01*
X0152657Y0021388D02*
X0148029Y0021388D01*
X0148804Y0023787D02*
X0152657Y0023787D01*
X0152657Y0026185D02*
X0149856Y0026185D01*
X0150065Y0028584D02*
X0152657Y0028584D01*
X0152657Y0030982D02*
X0152115Y0030982D01*
X0152356Y0033381D02*
X0152657Y0033381D01*
X0149156Y0032200D02*
X0149156Y0052200D01*
X0144156Y0057200D01*
X0139156Y0057200D01*
X0144041Y0052569D02*
X0144262Y0052569D01*
X0148516Y0057366D02*
X0152657Y0057366D01*
X0152657Y0054967D02*
X0150914Y0054967D01*
X0152356Y0052569D02*
X0152657Y0052569D01*
X0152657Y0050170D02*
X0152356Y0050170D01*
X0152356Y0047772D02*
X0152657Y0047772D01*
X0152657Y0045373D02*
X0152356Y0045373D01*
X0152356Y0042975D02*
X0152657Y0042975D01*
X0152657Y0040576D02*
X0152356Y0040576D01*
X0152356Y0038178D02*
X0152657Y0038178D01*
X0152657Y0035779D02*
X0152356Y0035779D01*
X0149156Y0032200D02*
X0144156Y0027200D01*
X0124156Y0027200D01*
X0128435Y0030982D02*
X0139877Y0030982D01*
X0145811Y0033381D02*
X0117973Y0033381D01*
X0117356Y0030982D02*
X0119877Y0030982D01*
X0118559Y0028584D02*
X0117356Y0028584D01*
X0114156Y0027200D02*
X0114156Y0037200D01*
X0118416Y0040576D02*
X0145956Y0040576D01*
X0145956Y0038178D02*
X0119556Y0038178D01*
X0119556Y0035779D02*
X0145956Y0035779D01*
X0145956Y0042975D02*
X0145002Y0042975D01*
X0139156Y0047200D02*
X0134156Y0047200D01*
X0114156Y0067200D01*
X0124156Y0077200D01*
X0139156Y0077200D01*
X0149156Y0087200D01*
X0150714Y0081351D02*
X0152657Y0081351D01*
X0152657Y0078952D02*
X0145434Y0078952D01*
X0143035Y0076554D02*
X0152657Y0076554D01*
X0152657Y0074155D02*
X0140167Y0074155D01*
X0139156Y0072400D02*
X0135747Y0072400D01*
X0134938Y0072272D01*
X0134160Y0072019D01*
X0133430Y0071647D01*
X0132768Y0071166D01*
X0132190Y0070588D01*
X0131708Y0069925D01*
X0131337Y0069196D01*
X0131084Y0068418D01*
X0130956Y0067609D01*
X0130956Y0067200D01*
X0139156Y0067200D01*
X0139156Y0067200D01*
X0139156Y0072400D01*
X0139156Y0071757D02*
X0139156Y0071757D01*
X0139156Y0069358D02*
X0139156Y0069358D01*
X0139156Y0067200D02*
X0139156Y0067200D01*
X0144667Y0071757D02*
X0152657Y0071757D01*
X0152657Y0069358D02*
X0146892Y0069358D01*
X0147356Y0066960D02*
X0152657Y0066960D01*
X0152657Y0064561D02*
X0146648Y0064561D01*
X0143480Y0062163D02*
X0152657Y0062163D01*
X0152657Y0059764D02*
X0146506Y0059764D01*
X0134831Y0062163D02*
X0123719Y0062163D01*
X0126117Y0059764D02*
X0131806Y0059764D01*
X0131156Y0057366D02*
X0128516Y0057366D01*
X0130914Y0054967D02*
X0131669Y0054967D01*
X0133313Y0052569D02*
X0134271Y0052569D01*
X0129059Y0047772D02*
X0075061Y0047772D01*
X0075299Y0047534D02*
X0074490Y0048343D01*
X0073582Y0049039D01*
X0072591Y0049611D01*
X0071534Y0050049D01*
X0070429Y0050345D01*
X0069787Y0050430D01*
X0069787Y0042831D01*
X0077386Y0042831D01*
X0077301Y0043473D01*
X0077005Y0044578D01*
X0076567Y0045635D01*
X0075995Y0046626D01*
X0075299Y0047534D01*
X0076676Y0045373D02*
X0131457Y0045373D01*
X0133310Y0042975D02*
X0077367Y0042975D01*
X0077386Y0040703D02*
X0069787Y0040703D01*
X0069787Y0042831D01*
X0067659Y0042831D01*
X0067659Y0050430D01*
X0067017Y0050345D01*
X0065911Y0050049D01*
X0064854Y0049611D01*
X0063864Y0049039D01*
X0062956Y0048343D01*
X0062147Y0047534D01*
X0061451Y0046626D01*
X0060879Y0045635D01*
X0060441Y0044578D01*
X0060145Y0043473D01*
X0060060Y0042831D01*
X0067659Y0042831D01*
X0067659Y0040703D01*
X0069787Y0040703D01*
X0069787Y0033104D01*
X0070429Y0033189D01*
X0071534Y0033485D01*
X0072591Y0033923D01*
X0073582Y0034495D01*
X0074490Y0035191D01*
X0075299Y0036000D01*
X0075995Y0036908D01*
X0076567Y0037899D01*
X0077005Y0038956D01*
X0077301Y0040061D01*
X0077386Y0040703D01*
X0077369Y0040576D02*
X0079895Y0040576D01*
X0078756Y0038178D02*
X0076683Y0038178D01*
X0075078Y0035779D02*
X0078756Y0035779D01*
X0080339Y0033381D02*
X0071145Y0033381D01*
X0069787Y0033381D02*
X0067659Y0033381D01*
X0067659Y0033104D02*
X0067659Y0040703D01*
X0060060Y0040703D01*
X0060145Y0040061D01*
X0060441Y0038956D01*
X0060879Y0037899D01*
X0061451Y0036908D01*
X0062147Y0036000D01*
X0062956Y0035191D01*
X0063864Y0034495D01*
X0064854Y0033923D01*
X0065911Y0033485D01*
X0067017Y0033189D01*
X0067659Y0033104D01*
X0066300Y0033381D02*
X0060035Y0033381D01*
X0061819Y0030982D02*
X0110956Y0030982D01*
X0110339Y0033381D02*
X0107973Y0033381D01*
X0106014Y0028584D02*
X0062683Y0028584D01*
X0062683Y0026185D02*
X0103616Y0026185D01*
X0101217Y0023787D02*
X0061972Y0023787D01*
X0060404Y0021388D02*
X0085000Y0021388D01*
X0083534Y0018990D02*
X0074709Y0018990D01*
X0076515Y0016591D02*
X0083279Y0016591D01*
X0084067Y0014193D02*
X0077320Y0014193D01*
X0069787Y0014193D02*
X0067659Y0014193D01*
X0067659Y0016591D02*
X0069787Y0016591D01*
X0069787Y0018990D02*
X0067659Y0018990D01*
X0062737Y0018990D02*
X0056618Y0018990D01*
X0054156Y0027200D02*
X0049156Y0032200D01*
X0049156Y0057200D01*
X0043911Y0054967D02*
X0034156Y0054967D01*
X0034156Y0052569D02*
X0038411Y0052569D01*
X0040095Y0053266D02*
X0036664Y0051845D01*
X0034156Y0049337D01*
X0034156Y0096961D01*
X0079391Y0096961D01*
X0075548Y0093118D01*
X0075349Y0093200D01*
X0072962Y0093200D01*
X0070757Y0092287D01*
X0069069Y0090599D01*
X0068156Y0088393D01*
X0068156Y0086007D01*
X0069069Y0083801D01*
X0070757Y0082113D01*
X0072962Y0081200D01*
X0075349Y0081200D01*
X0077555Y0082113D01*
X0079242Y0083801D01*
X0080156Y0086007D01*
X0080156Y0088393D01*
X0080074Y0088592D01*
X0085481Y0094000D01*
X0107830Y0094000D01*
X0113238Y0088592D01*
X0113156Y0088393D01*
X0113156Y0086007D01*
X0113238Y0085808D01*
X0101443Y0074013D01*
X0100956Y0072837D01*
X0100956Y0071637D01*
X0099156Y0069837D01*
X0096393Y0072600D01*
X0091919Y0072600D01*
X0089297Y0069978D01*
X0086475Y0072800D01*
X0084156Y0072800D01*
X0084156Y0067200D01*
X0084156Y0067200D01*
X0084156Y0072800D01*
X0081836Y0072800D01*
X0078556Y0069520D01*
X0078556Y0067200D01*
X0084156Y0067200D01*
X0078556Y0067200D01*
X0078556Y0064880D01*
X0081836Y0061600D01*
X0084030Y0061600D01*
X0082830Y0060400D01*
X0064000Y0060400D01*
X0063988Y0060429D01*
X0062385Y0062032D01*
X0062356Y0062044D01*
X0062356Y0081950D01*
X0063234Y0081950D01*
X0064406Y0083122D01*
X0064406Y0091278D01*
X0063234Y0092450D01*
X0055077Y0092450D01*
X0053906Y0091278D01*
X0053906Y0089882D01*
X0053817Y0090056D01*
X0053313Y0090750D01*
X0052706Y0091357D01*
X0052012Y0091861D01*
X0051248Y0092251D01*
X0050432Y0092516D01*
X0049585Y0092650D01*
X0049156Y0092650D01*
X0049156Y0087200D01*
X0049156Y0087200D01*
X0049156Y0081750D01*
X0049585Y0081750D01*
X0050432Y0081884D01*
X0051248Y0082149D01*
X0052012Y0082539D01*
X0052706Y0083043D01*
X0053313Y0083650D01*
X0053817Y0084344D01*
X0053906Y0084518D01*
X0053906Y0083122D01*
X0055077Y0081950D01*
X0055956Y0081950D01*
X0055956Y0062044D01*
X0055927Y0062032D01*
X0054324Y0060429D01*
X0054156Y0060024D01*
X0053988Y0060429D01*
X0052385Y0062032D01*
X0050290Y0062900D01*
X0048022Y0062900D01*
X0045927Y0062032D01*
X0044324Y0060429D01*
X0043456Y0058334D01*
X0043456Y0056066D01*
X0044324Y0053971D01*
X0045892Y0052403D01*
X0043808Y0053266D01*
X0040095Y0053266D01*
X0043456Y0057366D02*
X0034156Y0057366D01*
X0034156Y0059764D02*
X0044048Y0059764D01*
X0046242Y0062163D02*
X0034156Y0062163D01*
X0034156Y0064561D02*
X0055956Y0064561D01*
X0055956Y0062163D02*
X0052070Y0062163D01*
X0055956Y0066960D02*
X0034156Y0066960D01*
X0034156Y0069358D02*
X0055956Y0069358D01*
X0055956Y0071757D02*
X0034156Y0071757D01*
X0034156Y0074155D02*
X0055956Y0074155D01*
X0055956Y0076554D02*
X0034156Y0076554D01*
X0034156Y0078952D02*
X0055956Y0078952D01*
X0055956Y0081351D02*
X0034156Y0081351D01*
X0034156Y0083749D02*
X0044926Y0083749D01*
X0044999Y0083650D02*
X0045605Y0083043D01*
X0046299Y0082539D01*
X0047064Y0082149D01*
X0047880Y0081884D01*
X0048727Y0081750D01*
X0049156Y0081750D01*
X0049156Y0087200D01*
X0049156Y0087200D01*
X0049156Y0092650D01*
X0048727Y0092650D01*
X0047880Y0092516D01*
X0047064Y0092251D01*
X0046299Y0091861D01*
X0045605Y0091357D01*
X0044999Y0090750D01*
X0044495Y0090056D01*
X0044105Y0089292D01*
X0043840Y0088476D01*
X0043706Y0087629D01*
X0043706Y0087200D01*
X0049156Y0087200D01*
X0043706Y0087200D01*
X0043706Y0086771D01*
X0043840Y0085924D01*
X0044105Y0085108D01*
X0044495Y0084344D01*
X0044999Y0083650D01*
X0043805Y0086148D02*
X0034156Y0086148D01*
X0034156Y0088546D02*
X0043863Y0088546D01*
X0045193Y0090945D02*
X0034156Y0090945D01*
X0034156Y0093343D02*
X0075774Y0093343D01*
X0078172Y0095742D02*
X0034156Y0095742D01*
X0049156Y0090945D02*
X0049156Y0090945D01*
X0053118Y0090945D02*
X0053906Y0090945D01*
X0049156Y0088546D02*
X0049156Y0088546D01*
X0049156Y0087200D02*
X0049156Y0087200D01*
X0049156Y0086148D02*
X0049156Y0086148D01*
X0049156Y0083749D02*
X0049156Y0083749D01*
X0053385Y0083749D02*
X0053906Y0083749D01*
X0059156Y0087200D02*
X0059156Y0057200D01*
X0084156Y0057200D01*
X0094156Y0067200D01*
X0099154Y0064561D02*
X0099158Y0064561D01*
X0101556Y0062163D02*
X0096755Y0062163D01*
X0091246Y0059764D02*
X0117066Y0059764D01*
X0119465Y0057366D02*
X0088847Y0057366D01*
X0086449Y0054967D02*
X0121863Y0054967D01*
X0124262Y0052569D02*
X0062586Y0052569D01*
X0066364Y0050170D02*
X0052356Y0050170D01*
X0052586Y0052569D02*
X0055726Y0052569D01*
X0052356Y0047772D02*
X0062385Y0047772D01*
X0060770Y0045373D02*
X0052356Y0045373D01*
X0052356Y0042975D02*
X0060079Y0042975D01*
X0060077Y0040576D02*
X0052356Y0040576D01*
X0052356Y0038178D02*
X0060763Y0038178D01*
X0062368Y0035779D02*
X0052356Y0035779D01*
X0067659Y0035779D02*
X0069787Y0035779D01*
X0069787Y0038178D02*
X0067659Y0038178D01*
X0067659Y0040576D02*
X0069787Y0040576D01*
X0069787Y0042975D02*
X0067659Y0042975D01*
X0067659Y0045373D02*
X0069787Y0045373D01*
X0069787Y0047772D02*
X0067659Y0047772D01*
X0067659Y0050170D02*
X0069787Y0050170D01*
X0071082Y0050170D02*
X0126660Y0050170D01*
X0109895Y0040576D02*
X0108416Y0040576D01*
X0099895Y0040576D02*
X0098416Y0040576D01*
X0089895Y0040576D02*
X0088416Y0040576D01*
X0087973Y0033381D02*
X0090339Y0033381D01*
X0097973Y0033381D02*
X0100339Y0033381D01*
X0109156Y0027200D02*
X0099156Y0017200D01*
X0095283Y0021388D02*
X0093312Y0021388D01*
X0089156Y0021388D02*
X0089156Y0021388D01*
X0089156Y0018990D02*
X0089156Y0018990D01*
X0089156Y0017200D02*
X0089156Y0017200D01*
X0089156Y0016591D02*
X0089156Y0016591D01*
X0089156Y0014193D02*
X0089156Y0014193D01*
X0076828Y0009396D02*
X0152657Y0009396D01*
X0152657Y0011794D02*
X0146000Y0011794D01*
X0142312Y0011794D02*
X0126000Y0011794D01*
X0149080Y0014193D02*
X0152657Y0014193D01*
X0152657Y0016591D02*
X0149856Y0016591D01*
X0111556Y0062163D02*
X0106755Y0062163D01*
X0109154Y0064561D02*
X0109158Y0064561D01*
X0104156Y0067200D02*
X0104156Y0072200D01*
X0119156Y0087200D01*
X0109156Y0097200D01*
X0084156Y0097200D01*
X0074156Y0087200D01*
X0068219Y0088546D02*
X0064406Y0088546D01*
X0064406Y0086148D02*
X0068156Y0086148D01*
X0069121Y0083749D02*
X0064406Y0083749D01*
X0062356Y0081351D02*
X0072598Y0081351D01*
X0075714Y0081351D02*
X0102094Y0081351D01*
X0101776Y0081454D02*
X0102704Y0081153D01*
X0103668Y0081000D01*
X0104156Y0081000D01*
X0104644Y0081000D01*
X0105608Y0081153D01*
X0106536Y0081454D01*
X0107405Y0081897D01*
X0108195Y0082471D01*
X0108885Y0083161D01*
X0109459Y0083950D01*
X0109902Y0084820D01*
X0110203Y0085748D01*
X0110356Y0086712D01*
X0110356Y0087200D01*
X0110356Y0087688D01*
X0110203Y0088652D01*
X0109902Y0089580D01*
X0109459Y0090450D01*
X0108885Y0091239D01*
X0108195Y0091929D01*
X0107405Y0092503D01*
X0106536Y0092946D01*
X0105608Y0093247D01*
X0104644Y0093400D01*
X0104156Y0093400D01*
X0104156Y0087200D01*
X0110356Y0087200D01*
X0104156Y0087200D01*
X0104156Y0087200D01*
X0104156Y0087200D01*
X0104156Y0081000D01*
X0104156Y0087200D01*
X0104156Y0087200D01*
X0104156Y0093400D01*
X0103668Y0093400D01*
X0102704Y0093247D01*
X0101776Y0092946D01*
X0100906Y0092503D01*
X0100117Y0091929D01*
X0099427Y0091239D01*
X0098853Y0090450D01*
X0098410Y0089580D01*
X0098109Y0088652D01*
X0097956Y0087688D01*
X0097956Y0087200D01*
X0104156Y0087200D01*
X0097956Y0087200D01*
X0097956Y0086712D01*
X0098109Y0085748D01*
X0098410Y0084820D01*
X0098853Y0083950D01*
X0099427Y0083161D01*
X0100117Y0082471D01*
X0100906Y0081897D01*
X0101776Y0081454D01*
X0104156Y0081351D02*
X0104156Y0081351D01*
X0106218Y0081351D02*
X0108781Y0081351D01*
X0106383Y0078952D02*
X0062356Y0078952D01*
X0062356Y0076554D02*
X0103984Y0076554D01*
X0101586Y0074155D02*
X0062356Y0074155D01*
X0062356Y0071757D02*
X0080793Y0071757D01*
X0078556Y0069358D02*
X0062356Y0069358D01*
X0062356Y0066960D02*
X0078556Y0066960D01*
X0078875Y0064561D02*
X0062356Y0064561D01*
X0062356Y0062163D02*
X0081274Y0062163D01*
X0084156Y0067200D02*
X0084156Y0067200D01*
X0084156Y0069358D02*
X0084156Y0069358D01*
X0084156Y0071757D02*
X0084156Y0071757D01*
X0087519Y0071757D02*
X0091076Y0071757D01*
X0097236Y0071757D02*
X0100956Y0071757D01*
X0098999Y0083749D02*
X0079191Y0083749D01*
X0080156Y0086148D02*
X0098045Y0086148D01*
X0098092Y0088546D02*
X0080093Y0088546D01*
X0082426Y0090945D02*
X0099213Y0090945D01*
X0103311Y0093343D02*
X0084825Y0093343D01*
X0069416Y0090945D02*
X0064406Y0090945D01*
X0104156Y0090945D02*
X0104156Y0090945D01*
X0104156Y0093343D02*
X0104156Y0093343D01*
X0105001Y0093343D02*
X0108487Y0093343D01*
X0109099Y0090945D02*
X0110885Y0090945D01*
X0110220Y0088546D02*
X0113219Y0088546D01*
X0113156Y0086148D02*
X0110267Y0086148D01*
X0111180Y0083749D02*
X0109312Y0083749D01*
X0104156Y0083749D02*
X0104156Y0083749D01*
X0104156Y0086148D02*
X0104156Y0086148D01*
X0104156Y0087200D02*
X0104156Y0087200D01*
X0104156Y0088546D02*
X0104156Y0088546D01*
X0123238Y0071757D02*
X0133645Y0071757D01*
X0131420Y0069358D02*
X0120840Y0069358D01*
X0119556Y0066960D02*
X0130956Y0066960D01*
X0131664Y0064561D02*
X0121320Y0064561D01*
X0045726Y0052569D02*
X0045491Y0052569D01*
X0034989Y0050170D02*
X0034156Y0050170D01*
X0051285Y0009396D02*
X0060617Y0009396D01*
M02*
